<mxfile host="app.diagrams.net" agent="Mozilla/5.0 (Windows NT 10.0; Win64; x64) AppleWebKit/537.36 (KHTML, like Gecko) Chrome/139.0.0.0 Safari/537.36 Edg/139.0.0.0" version="28.2.0">
  <diagram id="C5RBs43oDa-KdzZeNtuy" name="Page-1">
    <mxGraphModel dx="1371" dy="796" grid="1" gridSize="10" guides="1" tooltips="1" connect="1" arrows="1" fold="1" page="1" pageScale="1" pageWidth="393699999996" pageHeight="39370000000000000" math="0" shadow="0">
      <root>
        <mxCell id="WIyWlLk6GJQsqaUBKTNV-0" />
        <mxCell id="WIyWlLk6GJQsqaUBKTNV-1" parent="WIyWlLk6GJQsqaUBKTNV-0" />
        <mxCell id="ioiUGn3sO733AsgO1TPS-50" value="" style="endArrow=classic;html=1;rounded=0;" parent="WIyWlLk6GJQsqaUBKTNV-1" edge="1">
          <mxGeometry width="50" height="50" relative="1" as="geometry">
            <mxPoint x="160" y="519.295991902834" as="sourcePoint" />
            <mxPoint x="490" y="519.295991902834" as="targetPoint" />
          </mxGeometry>
        </mxCell>
        <mxCell id="ioiUGn3sO733AsgO1TPS-51" value="" style="html=1;points=[[0,0,0,0,5],[0,1,0,0,-5],[1,0,0,0,5],[1,1,0,0,-5]];perimeter=orthogonalPerimeter;outlineConnect=0;targetShapes=umlLifeline;portConstraint=eastwest;newEdgeStyle={&quot;curved&quot;:0,&quot;rounded&quot;:0};" parent="WIyWlLk6GJQsqaUBKTNV-1" vertex="1">
          <mxGeometry x="200" y="489.29599190283403" width="2" height="30" as="geometry" />
        </mxCell>
        <mxCell id="ioiUGn3sO733AsgO1TPS-52" value="" style="html=1;points=[[0,0,0,0,5],[0,1,0,0,-5],[1,0,0,0,5],[1,1,0,0,-5]];perimeter=orthogonalPerimeter;outlineConnect=0;targetShapes=umlLifeline;portConstraint=eastwest;newEdgeStyle={&quot;curved&quot;:0,&quot;rounded&quot;:0};" parent="WIyWlLk6GJQsqaUBKTNV-1" vertex="1">
          <mxGeometry x="440" y="489.29599190283403" width="2" height="30" as="geometry" />
        </mxCell>
        <mxCell id="ioiUGn3sO733AsgO1TPS-53" value="" style="endArrow=classic;html=1;rounded=0;" parent="WIyWlLk6GJQsqaUBKTNV-1" edge="1">
          <mxGeometry width="50" height="50" relative="1" as="geometry">
            <mxPoint x="160" y="599.2959919028341" as="sourcePoint" />
            <mxPoint x="490" y="599.2959919028341" as="targetPoint" />
          </mxGeometry>
        </mxCell>
        <mxCell id="ioiUGn3sO733AsgO1TPS-54" value="" style="html=1;points=[[0,0,0,0,5],[0,1,0,0,-5],[1,0,0,0,5],[1,1,0,0,-5]];perimeter=orthogonalPerimeter;outlineConnect=0;targetShapes=umlLifeline;portConstraint=eastwest;newEdgeStyle={&quot;curved&quot;:0,&quot;rounded&quot;:0};" parent="WIyWlLk6GJQsqaUBKTNV-1" vertex="1">
          <mxGeometry x="200" y="569.2959919028341" width="2" height="30" as="geometry" />
        </mxCell>
        <mxCell id="ioiUGn3sO733AsgO1TPS-55" value="" style="html=1;points=[[0,0,0,0,5],[0,1,0,0,-5],[1,0,0,0,5],[1,1,0,0,-5]];perimeter=orthogonalPerimeter;outlineConnect=0;targetShapes=umlLifeline;portConstraint=eastwest;newEdgeStyle={&quot;curved&quot;:0,&quot;rounded&quot;:0};" parent="WIyWlLk6GJQsqaUBKTNV-1" vertex="1">
          <mxGeometry x="440" y="569.2959919028341" width="2" height="30" as="geometry" />
        </mxCell>
        <mxCell id="ioiUGn3sO733AsgO1TPS-56" value="" style="endArrow=classic;html=1;rounded=0;" parent="WIyWlLk6GJQsqaUBKTNV-1" edge="1">
          <mxGeometry width="50" height="50" relative="1" as="geometry">
            <mxPoint x="160" y="519.295991902834" as="sourcePoint" />
            <mxPoint x="160" y="479.29599190283403" as="targetPoint" />
          </mxGeometry>
        </mxCell>
        <mxCell id="ioiUGn3sO733AsgO1TPS-57" value="ir_fsin:30fps" style="text;html=1;align=center;verticalAlign=middle;resizable=0;points=[];autosize=1;strokeColor=none;fillColor=none;" parent="WIyWlLk6GJQsqaUBKTNV-1" vertex="1">
          <mxGeometry x="80" y="499.295991902834" width="90" height="30" as="geometry" />
        </mxCell>
        <mxCell id="ioiUGn3sO733AsgO1TPS-58" value="" style="endArrow=classic;html=1;rounded=0;" parent="WIyWlLk6GJQsqaUBKTNV-1" edge="1">
          <mxGeometry width="50" height="50" relative="1" as="geometry">
            <mxPoint x="160" y="599.2959919028341" as="sourcePoint" />
            <mxPoint x="160" y="559.2959919028341" as="targetPoint" />
          </mxGeometry>
        </mxCell>
        <mxCell id="ioiUGn3sO733AsgO1TPS-59" value="ir_strobe: exposure 3ms" style="text;html=1;align=center;verticalAlign=middle;resizable=0;points=[];autosize=1;strokeColor=none;fillColor=none;container=0;" parent="WIyWlLk6GJQsqaUBKTNV-1" vertex="1">
          <mxGeometry x="60" y="679.2959919028341" width="150" height="30" as="geometry" />
        </mxCell>
        <mxCell id="ioiUGn3sO733AsgO1TPS-60" value="rgb_strobe: exposure 6ms" style="text;html=1;align=center;verticalAlign=middle;resizable=0;points=[];autosize=1;strokeColor=none;fillColor=none;container=0;" parent="WIyWlLk6GJQsqaUBKTNV-1" vertex="1">
          <mxGeometry x="50" y="759.2959919028341" width="160" height="30" as="geometry" />
        </mxCell>
        <mxCell id="ioiUGn3sO733AsgO1TPS-61" value="" style="endArrow=none;html=1;rounded=0;" parent="WIyWlLk6GJQsqaUBKTNV-1" edge="1">
          <mxGeometry width="50" height="50" relative="1" as="geometry">
            <mxPoint x="177" y="759.2959919028341" as="sourcePoint" />
            <mxPoint x="177" y="729.2959919028341" as="targetPoint" />
          </mxGeometry>
        </mxCell>
        <mxCell id="ioiUGn3sO733AsgO1TPS-62" value="" style="endArrow=none;html=1;rounded=0;exitX=0.714;exitY=1;exitDx=0;exitDy=0;exitPerimeter=0;" parent="WIyWlLk6GJQsqaUBKTNV-1" edge="1">
          <mxGeometry width="50" height="50" relative="1" as="geometry">
            <mxPoint x="177.01999999999998" y="729.2959919028341" as="sourcePoint" />
            <mxPoint x="190" y="729.2929959514171" as="targetPoint" />
          </mxGeometry>
        </mxCell>
        <mxCell id="ioiUGn3sO733AsgO1TPS-63" value="" style="endArrow=none;html=1;rounded=0;" parent="WIyWlLk6GJQsqaUBKTNV-1" edge="1">
          <mxGeometry width="50" height="50" relative="1" as="geometry">
            <mxPoint x="190" y="759.2959919028341" as="sourcePoint" />
            <mxPoint x="190" y="729.2959919028341" as="targetPoint" />
          </mxGeometry>
        </mxCell>
        <mxCell id="ioiUGn3sO733AsgO1TPS-64" value="" style="endArrow=none;html=1;rounded=0;exitX=0.872;exitY=0.01;exitDx=0;exitDy=0;exitPerimeter=0;" parent="WIyWlLk6GJQsqaUBKTNV-1" source="ioiUGn3sO733AsgO1TPS-60" edge="1">
          <mxGeometry width="50" height="50" relative="1" as="geometry">
            <mxPoint x="277.02" y="759.2959919028341" as="sourcePoint" />
            <mxPoint x="416" y="759.2959919028341" as="targetPoint" />
          </mxGeometry>
        </mxCell>
        <mxCell id="ioiUGn3sO733AsgO1TPS-65" value="" style="endArrow=none;html=1;rounded=0;" parent="WIyWlLk6GJQsqaUBKTNV-1" edge="1">
          <mxGeometry width="50" height="50" relative="1" as="geometry">
            <mxPoint x="197.01999999999998" y="679.2959919028341" as="sourcePoint" />
            <mxPoint x="197.01999999999998" y="649.2959919028341" as="targetPoint" />
          </mxGeometry>
        </mxCell>
        <mxCell id="ioiUGn3sO733AsgO1TPS-66" value="" style="endArrow=none;html=1;rounded=0;" parent="WIyWlLk6GJQsqaUBKTNV-1" edge="1">
          <mxGeometry width="50" height="50" relative="1" as="geometry">
            <mxPoint x="190" y="649.2929959514171" as="sourcePoint" />
            <mxPoint x="197.01999999999998" y="649.2959919028341" as="targetPoint" />
          </mxGeometry>
        </mxCell>
        <mxCell id="ioiUGn3sO733AsgO1TPS-67" value="" style="endArrow=none;html=1;rounded=0;" parent="WIyWlLk6GJQsqaUBKTNV-1" edge="1">
          <mxGeometry width="50" height="50" relative="1" as="geometry">
            <mxPoint x="197.01999999999998" y="679.2959919028341" as="sourcePoint" />
            <mxPoint x="197.01999999999998" y="649.2959919028341" as="targetPoint" />
          </mxGeometry>
        </mxCell>
        <mxCell id="ioiUGn3sO733AsgO1TPS-68" value="" style="endArrow=none;html=1;rounded=0;" parent="WIyWlLk6GJQsqaUBKTNV-1" edge="1">
          <mxGeometry width="50" height="50" relative="1" as="geometry">
            <mxPoint x="190" y="679.2959919028341" as="sourcePoint" />
            <mxPoint x="190" y="649.2959919028341" as="targetPoint" />
          </mxGeometry>
        </mxCell>
        <mxCell id="ioiUGn3sO733AsgO1TPS-69" value="" style="endArrow=none;html=1;rounded=0;" parent="WIyWlLk6GJQsqaUBKTNV-1" edge="1">
          <mxGeometry width="50" height="50" relative="1" as="geometry">
            <mxPoint x="197.01999999999998" y="679.2959919028341" as="sourcePoint" />
            <mxPoint x="240" y="679.2959919028341" as="targetPoint" />
          </mxGeometry>
        </mxCell>
        <mxCell id="ioiUGn3sO733AsgO1TPS-70" value="" style="endArrow=none;html=1;rounded=0;" parent="WIyWlLk6GJQsqaUBKTNV-1" edge="1">
          <mxGeometry width="50" height="50" relative="1" as="geometry">
            <mxPoint x="237.01999999999998" y="679.2959919028341" as="sourcePoint" />
            <mxPoint x="270" y="679.2929959514171" as="targetPoint" />
          </mxGeometry>
        </mxCell>
        <mxCell id="ioiUGn3sO733AsgO1TPS-71" value="" style="endArrow=none;html=1;rounded=0;" parent="WIyWlLk6GJQsqaUBKTNV-1" edge="1">
          <mxGeometry width="50" height="50" relative="1" as="geometry">
            <mxPoint x="277.02" y="679.2959919028341" as="sourcePoint" />
            <mxPoint x="277.02" y="649.2959919028341" as="targetPoint" />
          </mxGeometry>
        </mxCell>
        <mxCell id="ioiUGn3sO733AsgO1TPS-72" value="" style="endArrow=none;html=1;rounded=0;" parent="WIyWlLk6GJQsqaUBKTNV-1" edge="1">
          <mxGeometry width="50" height="50" relative="1" as="geometry">
            <mxPoint x="270" y="649.2929959514171" as="sourcePoint" />
            <mxPoint x="277.02" y="649.2959919028341" as="targetPoint" />
          </mxGeometry>
        </mxCell>
        <mxCell id="ioiUGn3sO733AsgO1TPS-73" value="" style="endArrow=none;html=1;rounded=0;" parent="WIyWlLk6GJQsqaUBKTNV-1" edge="1">
          <mxGeometry width="50" height="50" relative="1" as="geometry">
            <mxPoint x="277.02" y="679.2959919028341" as="sourcePoint" />
            <mxPoint x="277.02" y="649.2959919028341" as="targetPoint" />
          </mxGeometry>
        </mxCell>
        <mxCell id="ioiUGn3sO733AsgO1TPS-74" value="" style="endArrow=none;html=1;rounded=0;" parent="WIyWlLk6GJQsqaUBKTNV-1" edge="1">
          <mxGeometry width="50" height="50" relative="1" as="geometry">
            <mxPoint x="277.02" y="679.2959919028341" as="sourcePoint" />
            <mxPoint x="350" y="679.2929959514171" as="targetPoint" />
          </mxGeometry>
        </mxCell>
        <mxCell id="ioiUGn3sO733AsgO1TPS-75" value="" style="endArrow=none;html=1;rounded=0;exitX=0.812;exitY=-0.005;exitDx=0;exitDy=0;exitPerimeter=0;" parent="WIyWlLk6GJQsqaUBKTNV-1" edge="1">
          <mxGeometry width="50" height="50" relative="1" as="geometry">
            <mxPoint x="160" y="759.2959919028341" as="sourcePoint" />
            <mxPoint x="177" y="759.2959919028341" as="targetPoint" />
          </mxGeometry>
        </mxCell>
        <mxCell id="ioiUGn3sO733AsgO1TPS-76" value="" style="endArrow=none;html=1;rounded=0;exitX=0.812;exitY=-0.005;exitDx=0;exitDy=0;exitPerimeter=0;" parent="WIyWlLk6GJQsqaUBKTNV-1" edge="1">
          <mxGeometry width="50" height="50" relative="1" as="geometry">
            <mxPoint x="160" y="679.2959919028341" as="sourcePoint" />
            <mxPoint x="190" y="679.2959919028341" as="targetPoint" />
          </mxGeometry>
        </mxCell>
        <mxCell id="ioiUGn3sO733AsgO1TPS-77" value="&lt;span style=&quot;color: rgb(0, 0, 0); font-family: Helvetica; font-size: 12px; font-style: normal; font-variant-ligatures: normal; font-variant-caps: normal; font-weight: 400; letter-spacing: normal; orphans: 2; text-align: center; text-indent: 0px; text-transform: none; widows: 2; word-spacing: 0px; -webkit-text-stroke-width: 0px; white-space: nowrap; text-decoration-thickness: initial; text-decoration-style: initial; text-decoration-color: initial; float: none; display: inline !important;&quot;&gt;rgb_fsin:10fps&lt;/span&gt;" style="text;whiteSpace=wrap;html=1;" parent="WIyWlLk6GJQsqaUBKTNV-1" vertex="1">
          <mxGeometry x="80" y="579.2959919028341" width="70" height="40" as="geometry" />
        </mxCell>
        <mxCell id="ioiUGn3sO733AsgO1TPS-78" value="" style="endArrow=none;dashed=1;html=1;dashPattern=1 3;strokeWidth=2;rounded=0;" parent="WIyWlLk6GJQsqaUBKTNV-1" edge="1">
          <mxGeometry width="50" height="50" relative="1" as="geometry">
            <mxPoint x="222" y="808.585991902834" as="sourcePoint" />
            <mxPoint x="222" y="461.41999999999996" as="targetPoint" />
          </mxGeometry>
        </mxCell>
        <mxCell id="ioiUGn3sO733AsgO1TPS-79" value="" style="endArrow=none;dashed=1;html=1;dashPattern=1 3;strokeWidth=2;rounded=0;" parent="WIyWlLk6GJQsqaUBKTNV-1" edge="1">
          <mxGeometry width="50" height="50" relative="1" as="geometry">
            <mxPoint x="465" y="807.1689878542511" as="sourcePoint" />
            <mxPoint x="465" y="460.002995951417" as="targetPoint" />
          </mxGeometry>
        </mxCell>
        <mxCell id="ioiUGn3sO733AsgO1TPS-80" value="" style="html=1;points=[[0,0,0,0,5],[0,1,0,0,-5],[1,0,0,0,5],[1,1,0,0,-5]];perimeter=orthogonalPerimeter;outlineConnect=0;targetShapes=umlLifeline;portConstraint=eastwest;newEdgeStyle={&quot;curved&quot;:0,&quot;rounded&quot;:0};" parent="WIyWlLk6GJQsqaUBKTNV-1" vertex="1">
          <mxGeometry x="360" y="489.29599190283403" width="2" height="30" as="geometry" />
        </mxCell>
        <mxCell id="ioiUGn3sO733AsgO1TPS-81" value="" style="html=1;points=[[0,0,0,0,5],[0,1,0,0,-5],[1,0,0,0,5],[1,1,0,0,-5]];perimeter=orthogonalPerimeter;outlineConnect=0;targetShapes=umlLifeline;portConstraint=eastwest;newEdgeStyle={&quot;curved&quot;:0,&quot;rounded&quot;:0};" parent="WIyWlLk6GJQsqaUBKTNV-1" vertex="1">
          <mxGeometry x="280" y="489.29599190283403" width="2" height="30" as="geometry" />
        </mxCell>
        <mxCell id="ioiUGn3sO733AsgO1TPS-82" value="" style="endArrow=none;html=1;rounded=0;" parent="WIyWlLk6GJQsqaUBKTNV-1" edge="1">
          <mxGeometry width="50" height="50" relative="1" as="geometry">
            <mxPoint x="270" y="679.2959919028341" as="sourcePoint" />
            <mxPoint x="270" y="649.2959919028341" as="targetPoint" />
          </mxGeometry>
        </mxCell>
        <mxCell id="ioiUGn3sO733AsgO1TPS-83" value="" style="endArrow=none;html=1;rounded=0;" parent="WIyWlLk6GJQsqaUBKTNV-1" edge="1">
          <mxGeometry width="50" height="50" relative="1" as="geometry">
            <mxPoint x="350" y="649.2929959514171" as="sourcePoint" />
            <mxPoint x="356" y="649.2959919028341" as="targetPoint" />
          </mxGeometry>
        </mxCell>
        <mxCell id="ioiUGn3sO733AsgO1TPS-84" value="" style="endArrow=none;html=1;rounded=0;" parent="WIyWlLk6GJQsqaUBKTNV-1" edge="1">
          <mxGeometry width="50" height="50" relative="1" as="geometry">
            <mxPoint x="350" y="679.2959919028341" as="sourcePoint" />
            <mxPoint x="350" y="649.2959919028341" as="targetPoint" />
          </mxGeometry>
        </mxCell>
        <mxCell id="ioiUGn3sO733AsgO1TPS-85" value="" style="endArrow=none;html=1;rounded=0;" parent="WIyWlLk6GJQsqaUBKTNV-1" edge="1">
          <mxGeometry width="50" height="50" relative="1" as="geometry">
            <mxPoint x="356" y="679.2959919028341" as="sourcePoint" />
            <mxPoint x="356" y="649.2959919028341" as="targetPoint" />
          </mxGeometry>
        </mxCell>
        <mxCell id="ioiUGn3sO733AsgO1TPS-86" value="" style="endArrow=none;html=1;rounded=0;" parent="WIyWlLk6GJQsqaUBKTNV-1" edge="1">
          <mxGeometry width="50" height="50" relative="1" as="geometry">
            <mxPoint x="356" y="679.2959919028341" as="sourcePoint" />
            <mxPoint x="356" y="649.2959919028341" as="targetPoint" />
          </mxGeometry>
        </mxCell>
        <mxCell id="ioiUGn3sO733AsgO1TPS-87" value="" style="endArrow=none;html=1;rounded=0;" parent="WIyWlLk6GJQsqaUBKTNV-1" edge="1">
          <mxGeometry width="50" height="50" relative="1" as="geometry">
            <mxPoint x="356" y="680.2959919028341" as="sourcePoint" />
            <mxPoint x="356" y="650.2959919028341" as="targetPoint" />
          </mxGeometry>
        </mxCell>
        <mxCell id="ioiUGn3sO733AsgO1TPS-88" value="" style="endArrow=none;html=1;rounded=0;" parent="WIyWlLk6GJQsqaUBKTNV-1" edge="1">
          <mxGeometry width="50" height="50" relative="1" as="geometry">
            <mxPoint x="356" y="679.2959919028341" as="sourcePoint" />
            <mxPoint x="430" y="679.2929959514171" as="targetPoint" />
          </mxGeometry>
        </mxCell>
        <mxCell id="ioiUGn3sO733AsgO1TPS-89" value="" style="endArrow=none;html=1;rounded=0;" parent="WIyWlLk6GJQsqaUBKTNV-1" edge="1">
          <mxGeometry width="50" height="50" relative="1" as="geometry">
            <mxPoint x="436" y="679.2959919028341" as="sourcePoint" />
            <mxPoint x="436" y="649.2959919028341" as="targetPoint" />
          </mxGeometry>
        </mxCell>
        <mxCell id="ioiUGn3sO733AsgO1TPS-90" value="" style="endArrow=none;html=1;rounded=0;" parent="WIyWlLk6GJQsqaUBKTNV-1" edge="1">
          <mxGeometry width="50" height="50" relative="1" as="geometry">
            <mxPoint x="430" y="649.2929959514171" as="sourcePoint" />
            <mxPoint x="436" y="649.2959919028341" as="targetPoint" />
          </mxGeometry>
        </mxCell>
        <mxCell id="ioiUGn3sO733AsgO1TPS-91" value="" style="endArrow=none;html=1;rounded=0;" parent="WIyWlLk6GJQsqaUBKTNV-1" edge="1">
          <mxGeometry width="50" height="50" relative="1" as="geometry">
            <mxPoint x="436" y="679.2959919028341" as="sourcePoint" />
            <mxPoint x="436" y="649.2959919028341" as="targetPoint" />
          </mxGeometry>
        </mxCell>
        <mxCell id="ioiUGn3sO733AsgO1TPS-92" value="" style="endArrow=none;html=1;rounded=0;" parent="WIyWlLk6GJQsqaUBKTNV-1" edge="1">
          <mxGeometry width="50" height="50" relative="1" as="geometry">
            <mxPoint x="436" y="679.2959919028341" as="sourcePoint" />
            <mxPoint x="488" y="679.2959919028341" as="targetPoint" />
          </mxGeometry>
        </mxCell>
        <mxCell id="ioiUGn3sO733AsgO1TPS-93" value="" style="endArrow=none;html=1;rounded=0;" parent="WIyWlLk6GJQsqaUBKTNV-1" edge="1">
          <mxGeometry width="50" height="50" relative="1" as="geometry">
            <mxPoint x="430" y="679.2959919028341" as="sourcePoint" />
            <mxPoint x="430" y="649.2959919028341" as="targetPoint" />
          </mxGeometry>
        </mxCell>
        <mxCell id="ioiUGn3sO733AsgO1TPS-94" value="" style="endArrow=none;html=1;rounded=0;exitX=0.714;exitY=1;exitDx=0;exitDy=0;exitPerimeter=0;" parent="WIyWlLk6GJQsqaUBKTNV-1" edge="1">
          <mxGeometry width="50" height="50" relative="1" as="geometry">
            <mxPoint x="416" y="729.2959919028341" as="sourcePoint" />
            <mxPoint x="430" y="729.2929959514171" as="targetPoint" />
          </mxGeometry>
        </mxCell>
        <mxCell id="ioiUGn3sO733AsgO1TPS-95" value="" style="endArrow=none;html=1;rounded=0;" parent="WIyWlLk6GJQsqaUBKTNV-1" edge="1">
          <mxGeometry width="50" height="50" relative="1" as="geometry">
            <mxPoint x="430" y="759.2959919028341" as="sourcePoint" />
            <mxPoint x="430" y="729.2959919028341" as="targetPoint" />
          </mxGeometry>
        </mxCell>
        <mxCell id="ioiUGn3sO733AsgO1TPS-96" value="" style="endArrow=none;html=1;rounded=0;" parent="WIyWlLk6GJQsqaUBKTNV-1" edge="1">
          <mxGeometry width="50" height="50" relative="1" as="geometry">
            <mxPoint x="416" y="759.2959919028341" as="sourcePoint" />
            <mxPoint x="416" y="729.2959919028341" as="targetPoint" />
          </mxGeometry>
        </mxCell>
        <mxCell id="ioiUGn3sO733AsgO1TPS-97" value="" style="endArrow=none;html=1;rounded=0;" parent="WIyWlLk6GJQsqaUBKTNV-1" edge="1">
          <mxGeometry width="50" height="50" relative="1" as="geometry">
            <mxPoint x="430" y="759.2929959514171" as="sourcePoint" />
            <mxPoint x="488" y="759.2959919028341" as="targetPoint" />
          </mxGeometry>
        </mxCell>
        <mxCell id="ioiUGn3sO733AsgO1TPS-0" value="" style="endArrow=classic;html=1;rounded=0;" parent="WIyWlLk6GJQsqaUBKTNV-1" edge="1">
          <mxGeometry width="50" height="50" relative="1" as="geometry">
            <mxPoint x="160" y="118.58299595141699" as="sourcePoint" />
            <mxPoint x="490" y="118.58299595141699" as="targetPoint" />
          </mxGeometry>
        </mxCell>
        <mxCell id="ioiUGn3sO733AsgO1TPS-1" value="" style="html=1;points=[[0,0,0,0,5],[0,1,0,0,-5],[1,0,0,0,5],[1,1,0,0,-5]];perimeter=orthogonalPerimeter;outlineConnect=0;targetShapes=umlLifeline;portConstraint=eastwest;newEdgeStyle={&quot;curved&quot;:0,&quot;rounded&quot;:0};" parent="WIyWlLk6GJQsqaUBKTNV-1" vertex="1">
          <mxGeometry x="200" y="88.582995951417" width="2" height="30" as="geometry" />
        </mxCell>
        <mxCell id="ioiUGn3sO733AsgO1TPS-2" value="" style="html=1;points=[[0,0,0,0,5],[0,1,0,0,-5],[1,0,0,0,5],[1,1,0,0,-5]];perimeter=orthogonalPerimeter;outlineConnect=0;targetShapes=umlLifeline;portConstraint=eastwest;newEdgeStyle={&quot;curved&quot;:0,&quot;rounded&quot;:0};" parent="WIyWlLk6GJQsqaUBKTNV-1" vertex="1">
          <mxGeometry x="440" y="88.582995951417" width="2" height="30" as="geometry" />
        </mxCell>
        <mxCell id="ioiUGn3sO733AsgO1TPS-3" value="" style="endArrow=classic;html=1;rounded=0;" parent="WIyWlLk6GJQsqaUBKTNV-1" edge="1">
          <mxGeometry width="50" height="50" relative="1" as="geometry">
            <mxPoint x="160" y="198.58299595141702" as="sourcePoint" />
            <mxPoint x="490" y="198.58299595141702" as="targetPoint" />
          </mxGeometry>
        </mxCell>
        <mxCell id="ioiUGn3sO733AsgO1TPS-4" value="" style="html=1;points=[[0,0,0,0,5],[0,1,0,0,-5],[1,0,0,0,5],[1,1,0,0,-5]];perimeter=orthogonalPerimeter;outlineConnect=0;targetShapes=umlLifeline;portConstraint=eastwest;newEdgeStyle={&quot;curved&quot;:0,&quot;rounded&quot;:0};" parent="WIyWlLk6GJQsqaUBKTNV-1" vertex="1">
          <mxGeometry x="200" y="168.58299595141702" width="2" height="30" as="geometry" />
        </mxCell>
        <mxCell id="ioiUGn3sO733AsgO1TPS-5" value="" style="html=1;points=[[0,0,0,0,5],[0,1,0,0,-5],[1,0,0,0,5],[1,1,0,0,-5]];perimeter=orthogonalPerimeter;outlineConnect=0;targetShapes=umlLifeline;portConstraint=eastwest;newEdgeStyle={&quot;curved&quot;:0,&quot;rounded&quot;:0};" parent="WIyWlLk6GJQsqaUBKTNV-1" vertex="1">
          <mxGeometry x="440" y="168.58299595141702" width="2" height="30" as="geometry" />
        </mxCell>
        <mxCell id="ioiUGn3sO733AsgO1TPS-6" value="" style="endArrow=classic;html=1;rounded=0;" parent="WIyWlLk6GJQsqaUBKTNV-1" edge="1">
          <mxGeometry width="50" height="50" relative="1" as="geometry">
            <mxPoint x="160" y="118.58299595141699" as="sourcePoint" />
            <mxPoint x="160" y="78.582995951417" as="targetPoint" />
          </mxGeometry>
        </mxCell>
        <mxCell id="ioiUGn3sO733AsgO1TPS-7" value="ir_fsin:30fps" style="text;html=1;align=center;verticalAlign=middle;resizable=0;points=[];autosize=1;strokeColor=none;fillColor=none;" parent="WIyWlLk6GJQsqaUBKTNV-1" vertex="1">
          <mxGeometry x="80" y="98.582995951417" width="90" height="30" as="geometry" />
        </mxCell>
        <mxCell id="ioiUGn3sO733AsgO1TPS-8" value="" style="endArrow=classic;html=1;rounded=0;" parent="WIyWlLk6GJQsqaUBKTNV-1" edge="1">
          <mxGeometry width="50" height="50" relative="1" as="geometry">
            <mxPoint x="160" y="198.58299595141702" as="sourcePoint" />
            <mxPoint x="160" y="158.58299595141702" as="targetPoint" />
          </mxGeometry>
        </mxCell>
        <mxCell id="ioiUGn3sO733AsgO1TPS-9" value="ir_strobe: exposure 6ms" style="text;html=1;align=center;verticalAlign=middle;resizable=0;points=[];autosize=1;strokeColor=none;fillColor=none;container=0;" parent="WIyWlLk6GJQsqaUBKTNV-1" vertex="1">
          <mxGeometry x="35" y="258.58299595141705" width="150" height="30" as="geometry" />
        </mxCell>
        <mxCell id="ioiUGn3sO733AsgO1TPS-10" value="rgb_strobe: exposure 6ms" style="text;html=1;align=center;verticalAlign=middle;resizable=0;points=[];autosize=1;strokeColor=none;fillColor=none;container=0;" parent="WIyWlLk6GJQsqaUBKTNV-1" vertex="1">
          <mxGeometry x="30" y="338.582995951417" width="160" height="30" as="geometry" />
        </mxCell>
        <mxCell id="ioiUGn3sO733AsgO1TPS-11" value="" style="endArrow=none;html=1;rounded=0;" parent="WIyWlLk6GJQsqaUBKTNV-1" edge="1">
          <mxGeometry width="50" height="50" relative="1" as="geometry">
            <mxPoint x="182" y="358.582995951417" as="sourcePoint" />
            <mxPoint x="182" y="328.582995951417" as="targetPoint" />
          </mxGeometry>
        </mxCell>
        <mxCell id="ioiUGn3sO733AsgO1TPS-12" value="" style="endArrow=none;html=1;rounded=0;" parent="WIyWlLk6GJQsqaUBKTNV-1" edge="1">
          <mxGeometry width="50" height="50" relative="1" as="geometry">
            <mxPoint x="202.01999999999998" y="358.582995951417" as="sourcePoint" />
            <mxPoint x="202.01999999999998" y="328.582995951417" as="targetPoint" />
          </mxGeometry>
        </mxCell>
        <mxCell id="ioiUGn3sO733AsgO1TPS-13" value="" style="endArrow=none;html=1;rounded=0;exitX=0.714;exitY=1;exitDx=0;exitDy=0;exitPerimeter=0;" parent="WIyWlLk6GJQsqaUBKTNV-1" edge="1">
          <mxGeometry width="50" height="50" relative="1" as="geometry">
            <mxPoint x="182.01999999999998" y="328.582995951417" as="sourcePoint" />
            <mxPoint x="202.01999999999998" y="328.582995951417" as="targetPoint" />
          </mxGeometry>
        </mxCell>
        <mxCell id="ioiUGn3sO733AsgO1TPS-14" value="" style="endArrow=none;html=1;rounded=0;" parent="WIyWlLk6GJQsqaUBKTNV-1" edge="1">
          <mxGeometry width="50" height="50" relative="1" as="geometry">
            <mxPoint x="202.01999999999998" y="358.582995951417" as="sourcePoint" />
            <mxPoint x="202.01999999999998" y="328.582995951417" as="targetPoint" />
          </mxGeometry>
        </mxCell>
        <mxCell id="ioiUGn3sO733AsgO1TPS-15" value="" style="endArrow=none;html=1;rounded=0;" parent="WIyWlLk6GJQsqaUBKTNV-1" edge="1">
          <mxGeometry width="50" height="50" relative="1" as="geometry">
            <mxPoint x="202.01999999999998" y="358.582995951417" as="sourcePoint" />
            <mxPoint x="282" y="358.582995951417" as="targetPoint" />
          </mxGeometry>
        </mxCell>
        <mxCell id="ioiUGn3sO733AsgO1TPS-16" value="" style="endArrow=none;html=1;rounded=0;" parent="WIyWlLk6GJQsqaUBKTNV-1" edge="1">
          <mxGeometry width="50" height="50" relative="1" as="geometry">
            <mxPoint x="282.02" y="358.582995951417" as="sourcePoint" />
            <mxPoint x="421" y="358.582995951417" as="targetPoint" />
          </mxGeometry>
        </mxCell>
        <mxCell id="ioiUGn3sO733AsgO1TPS-17" value="" style="endArrow=none;html=1;rounded=0;" parent="WIyWlLk6GJQsqaUBKTNV-1" edge="1">
          <mxGeometry width="50" height="50" relative="1" as="geometry">
            <mxPoint x="197.01999999999998" y="278.582995951417" as="sourcePoint" />
            <mxPoint x="197.01999999999998" y="248.58299595141705" as="targetPoint" />
          </mxGeometry>
        </mxCell>
        <mxCell id="ioiUGn3sO733AsgO1TPS-18" value="" style="endArrow=none;html=1;rounded=0;exitX=0.714;exitY=1;exitDx=0;exitDy=0;exitPerimeter=0;" parent="WIyWlLk6GJQsqaUBKTNV-1" edge="1">
          <mxGeometry width="50" height="50" relative="1" as="geometry">
            <mxPoint x="177.01999999999998" y="248.58299595141705" as="sourcePoint" />
            <mxPoint x="197.01999999999998" y="248.58299595141705" as="targetPoint" />
          </mxGeometry>
        </mxCell>
        <mxCell id="ioiUGn3sO733AsgO1TPS-19" value="" style="endArrow=none;html=1;rounded=0;" parent="WIyWlLk6GJQsqaUBKTNV-1" edge="1">
          <mxGeometry width="50" height="50" relative="1" as="geometry">
            <mxPoint x="197.01999999999998" y="278.582995951417" as="sourcePoint" />
            <mxPoint x="197.01999999999998" y="248.58299595141705" as="targetPoint" />
          </mxGeometry>
        </mxCell>
        <mxCell id="ioiUGn3sO733AsgO1TPS-20" value="" style="endArrow=none;html=1;rounded=0;" parent="WIyWlLk6GJQsqaUBKTNV-1" edge="1">
          <mxGeometry width="50" height="50" relative="1" as="geometry">
            <mxPoint x="177.01999999999998" y="278.582995951417" as="sourcePoint" />
            <mxPoint x="177.01999999999998" y="248.58299595141705" as="targetPoint" />
          </mxGeometry>
        </mxCell>
        <mxCell id="ioiUGn3sO733AsgO1TPS-21" value="" style="endArrow=none;html=1;rounded=0;" parent="WIyWlLk6GJQsqaUBKTNV-1" edge="1">
          <mxGeometry width="50" height="50" relative="1" as="geometry">
            <mxPoint x="197.01999999999998" y="278.582995951417" as="sourcePoint" />
            <mxPoint x="240" y="278.582995951417" as="targetPoint" />
          </mxGeometry>
        </mxCell>
        <mxCell id="ioiUGn3sO733AsgO1TPS-22" value="" style="endArrow=none;html=1;rounded=0;" parent="WIyWlLk6GJQsqaUBKTNV-1" edge="1">
          <mxGeometry width="50" height="50" relative="1" as="geometry">
            <mxPoint x="237.01999999999998" y="278.582995951417" as="sourcePoint" />
            <mxPoint x="258.02" y="278.582995951417" as="targetPoint" />
          </mxGeometry>
        </mxCell>
        <mxCell id="ioiUGn3sO733AsgO1TPS-23" value="" style="endArrow=none;html=1;rounded=0;" parent="WIyWlLk6GJQsqaUBKTNV-1" edge="1">
          <mxGeometry width="50" height="50" relative="1" as="geometry">
            <mxPoint x="277.02" y="278.582995951417" as="sourcePoint" />
            <mxPoint x="277.02" y="248.58299595141705" as="targetPoint" />
          </mxGeometry>
        </mxCell>
        <mxCell id="ioiUGn3sO733AsgO1TPS-24" value="" style="endArrow=none;html=1;rounded=0;exitX=0.714;exitY=1;exitDx=0;exitDy=0;exitPerimeter=0;" parent="WIyWlLk6GJQsqaUBKTNV-1" edge="1">
          <mxGeometry width="50" height="50" relative="1" as="geometry">
            <mxPoint x="257.02" y="248.58299595141705" as="sourcePoint" />
            <mxPoint x="277.02" y="248.58299595141705" as="targetPoint" />
          </mxGeometry>
        </mxCell>
        <mxCell id="ioiUGn3sO733AsgO1TPS-25" value="" style="endArrow=none;html=1;rounded=0;" parent="WIyWlLk6GJQsqaUBKTNV-1" edge="1">
          <mxGeometry width="50" height="50" relative="1" as="geometry">
            <mxPoint x="277.02" y="278.582995951417" as="sourcePoint" />
            <mxPoint x="277.02" y="248.58299595141705" as="targetPoint" />
          </mxGeometry>
        </mxCell>
        <mxCell id="ioiUGn3sO733AsgO1TPS-26" value="" style="endArrow=none;html=1;rounded=0;" parent="WIyWlLk6GJQsqaUBKTNV-1" edge="1">
          <mxGeometry width="50" height="50" relative="1" as="geometry">
            <mxPoint x="277.02" y="278.582995951417" as="sourcePoint" />
            <mxPoint x="336" y="278.582995951417" as="targetPoint" />
          </mxGeometry>
        </mxCell>
        <mxCell id="ioiUGn3sO733AsgO1TPS-27" value="" style="endArrow=none;html=1;rounded=0;exitX=0.812;exitY=-0.005;exitDx=0;exitDy=0;exitPerimeter=0;" parent="WIyWlLk6GJQsqaUBKTNV-1" edge="1">
          <mxGeometry width="50" height="50" relative="1" as="geometry">
            <mxPoint x="165" y="358.582995951417" as="sourcePoint" />
            <mxPoint x="182" y="358.582995951417" as="targetPoint" />
          </mxGeometry>
        </mxCell>
        <mxCell id="ioiUGn3sO733AsgO1TPS-28" value="" style="endArrow=none;html=1;rounded=0;exitX=0.812;exitY=-0.005;exitDx=0;exitDy=0;exitPerimeter=0;" parent="WIyWlLk6GJQsqaUBKTNV-1" edge="1">
          <mxGeometry width="50" height="50" relative="1" as="geometry">
            <mxPoint x="160" y="278.582995951417" as="sourcePoint" />
            <mxPoint x="177" y="278.582995951417" as="targetPoint" />
          </mxGeometry>
        </mxCell>
        <mxCell id="ioiUGn3sO733AsgO1TPS-29" value="&lt;span style=&quot;color: rgb(0, 0, 0); font-family: Helvetica; font-size: 12px; font-style: normal; font-variant-ligatures: normal; font-variant-caps: normal; font-weight: 400; letter-spacing: normal; orphans: 2; text-align: center; text-indent: 0px; text-transform: none; widows: 2; word-spacing: 0px; -webkit-text-stroke-width: 0px; white-space: nowrap; text-decoration-thickness: initial; text-decoration-style: initial; text-decoration-color: initial; float: none; display: inline !important;&quot;&gt;rgb_fsin:10fps&lt;/span&gt;" style="text;whiteSpace=wrap;html=1;" parent="WIyWlLk6GJQsqaUBKTNV-1" vertex="1">
          <mxGeometry x="80" y="178.58299595141702" width="70" height="40" as="geometry" />
        </mxCell>
        <mxCell id="ioiUGn3sO733AsgO1TPS-30" value="" style="endArrow=none;dashed=1;html=1;dashPattern=1 3;strokeWidth=2;rounded=0;" parent="WIyWlLk6GJQsqaUBKTNV-1" edge="1">
          <mxGeometry width="50" height="50" relative="1" as="geometry">
            <mxPoint x="202" y="398.582995951417" as="sourcePoint" />
            <mxPoint x="202" y="51.417004048582996" as="targetPoint" />
          </mxGeometry>
        </mxCell>
        <mxCell id="ioiUGn3sO733AsgO1TPS-31" value="" style="endArrow=none;dashed=1;html=1;dashPattern=1 3;strokeWidth=2;rounded=0;" parent="WIyWlLk6GJQsqaUBKTNV-1" edge="1">
          <mxGeometry width="50" height="50" relative="1" as="geometry">
            <mxPoint x="445" y="397.165991902834" as="sourcePoint" />
            <mxPoint x="445" y="50" as="targetPoint" />
          </mxGeometry>
        </mxCell>
        <mxCell id="ioiUGn3sO733AsgO1TPS-32" value="" style="html=1;points=[[0,0,0,0,5],[0,1,0,0,-5],[1,0,0,0,5],[1,1,0,0,-5]];perimeter=orthogonalPerimeter;outlineConnect=0;targetShapes=umlLifeline;portConstraint=eastwest;newEdgeStyle={&quot;curved&quot;:0,&quot;rounded&quot;:0};" parent="WIyWlLk6GJQsqaUBKTNV-1" vertex="1">
          <mxGeometry x="360" y="88.582995951417" width="2" height="30" as="geometry" />
        </mxCell>
        <mxCell id="ioiUGn3sO733AsgO1TPS-33" value="" style="html=1;points=[[0,0,0,0,5],[0,1,0,0,-5],[1,0,0,0,5],[1,1,0,0,-5]];perimeter=orthogonalPerimeter;outlineConnect=0;targetShapes=umlLifeline;portConstraint=eastwest;newEdgeStyle={&quot;curved&quot;:0,&quot;rounded&quot;:0};" parent="WIyWlLk6GJQsqaUBKTNV-1" vertex="1">
          <mxGeometry x="280" y="88.582995951417" width="2" height="30" as="geometry" />
        </mxCell>
        <mxCell id="ioiUGn3sO733AsgO1TPS-34" value="" style="endArrow=none;html=1;rounded=0;" parent="WIyWlLk6GJQsqaUBKTNV-1" edge="1">
          <mxGeometry width="50" height="50" relative="1" as="geometry">
            <mxPoint x="257" y="278.582995951417" as="sourcePoint" />
            <mxPoint x="257" y="248.58299595141705" as="targetPoint" />
          </mxGeometry>
        </mxCell>
        <mxCell id="ioiUGn3sO733AsgO1TPS-35" value="" style="endArrow=none;html=1;rounded=0;exitX=0.714;exitY=1;exitDx=0;exitDy=0;exitPerimeter=0;" parent="WIyWlLk6GJQsqaUBKTNV-1" edge="1">
          <mxGeometry width="50" height="50" relative="1" as="geometry">
            <mxPoint x="336" y="248.58299595141705" as="sourcePoint" />
            <mxPoint x="356" y="248.58299595141705" as="targetPoint" />
          </mxGeometry>
        </mxCell>
        <mxCell id="ioiUGn3sO733AsgO1TPS-36" value="" style="endArrow=none;html=1;rounded=0;" parent="WIyWlLk6GJQsqaUBKTNV-1" edge="1">
          <mxGeometry width="50" height="50" relative="1" as="geometry">
            <mxPoint x="335.98" y="278.582995951417" as="sourcePoint" />
            <mxPoint x="335.98" y="248.58299595141705" as="targetPoint" />
          </mxGeometry>
        </mxCell>
        <mxCell id="ioiUGn3sO733AsgO1TPS-37" value="" style="endArrow=none;html=1;rounded=0;" parent="WIyWlLk6GJQsqaUBKTNV-1" edge="1">
          <mxGeometry width="50" height="50" relative="1" as="geometry">
            <mxPoint x="356" y="278.582995951417" as="sourcePoint" />
            <mxPoint x="356" y="248.58299595141705" as="targetPoint" />
          </mxGeometry>
        </mxCell>
        <mxCell id="ioiUGn3sO733AsgO1TPS-38" value="" style="endArrow=none;html=1;rounded=0;" parent="WIyWlLk6GJQsqaUBKTNV-1" edge="1">
          <mxGeometry width="50" height="50" relative="1" as="geometry">
            <mxPoint x="356" y="278.582995951417" as="sourcePoint" />
            <mxPoint x="356" y="248.58299595141705" as="targetPoint" />
          </mxGeometry>
        </mxCell>
        <mxCell id="ioiUGn3sO733AsgO1TPS-39" value="" style="endArrow=none;html=1;rounded=0;" parent="WIyWlLk6GJQsqaUBKTNV-1" edge="1">
          <mxGeometry width="50" height="50" relative="1" as="geometry">
            <mxPoint x="356" y="279.582995951417" as="sourcePoint" />
            <mxPoint x="356" y="249.58299595141705" as="targetPoint" />
          </mxGeometry>
        </mxCell>
        <mxCell id="ioiUGn3sO733AsgO1TPS-40" value="" style="endArrow=none;html=1;rounded=0;" parent="WIyWlLk6GJQsqaUBKTNV-1" edge="1">
          <mxGeometry width="50" height="50" relative="1" as="geometry">
            <mxPoint x="356" y="278.582995951417" as="sourcePoint" />
            <mxPoint x="417" y="278.582995951417" as="targetPoint" />
          </mxGeometry>
        </mxCell>
        <mxCell id="ioiUGn3sO733AsgO1TPS-41" value="" style="endArrow=none;html=1;rounded=0;" parent="WIyWlLk6GJQsqaUBKTNV-1" edge="1">
          <mxGeometry width="50" height="50" relative="1" as="geometry">
            <mxPoint x="436" y="278.582995951417" as="sourcePoint" />
            <mxPoint x="436" y="248.58299595141705" as="targetPoint" />
          </mxGeometry>
        </mxCell>
        <mxCell id="ioiUGn3sO733AsgO1TPS-42" value="" style="endArrow=none;html=1;rounded=0;exitX=0.714;exitY=1;exitDx=0;exitDy=0;exitPerimeter=0;" parent="WIyWlLk6GJQsqaUBKTNV-1" edge="1">
          <mxGeometry width="50" height="50" relative="1" as="geometry">
            <mxPoint x="416" y="248.58299595141705" as="sourcePoint" />
            <mxPoint x="436" y="248.58299595141705" as="targetPoint" />
          </mxGeometry>
        </mxCell>
        <mxCell id="ioiUGn3sO733AsgO1TPS-43" value="" style="endArrow=none;html=1;rounded=0;" parent="WIyWlLk6GJQsqaUBKTNV-1" edge="1">
          <mxGeometry width="50" height="50" relative="1" as="geometry">
            <mxPoint x="436" y="278.582995951417" as="sourcePoint" />
            <mxPoint x="436" y="248.58299595141705" as="targetPoint" />
          </mxGeometry>
        </mxCell>
        <mxCell id="ioiUGn3sO733AsgO1TPS-44" value="" style="endArrow=none;html=1;rounded=0;" parent="WIyWlLk6GJQsqaUBKTNV-1" edge="1">
          <mxGeometry width="50" height="50" relative="1" as="geometry">
            <mxPoint x="436" y="278.582995951417" as="sourcePoint" />
            <mxPoint x="488" y="278.582995951417" as="targetPoint" />
          </mxGeometry>
        </mxCell>
        <mxCell id="ioiUGn3sO733AsgO1TPS-45" value="" style="endArrow=none;html=1;rounded=0;" parent="WIyWlLk6GJQsqaUBKTNV-1" edge="1">
          <mxGeometry width="50" height="50" relative="1" as="geometry">
            <mxPoint x="415.98" y="278.582995951417" as="sourcePoint" />
            <mxPoint x="415.98" y="248.58299595141705" as="targetPoint" />
          </mxGeometry>
        </mxCell>
        <mxCell id="ioiUGn3sO733AsgO1TPS-46" value="" style="endArrow=none;html=1;rounded=0;exitX=0.714;exitY=1;exitDx=0;exitDy=0;exitPerimeter=0;" parent="WIyWlLk6GJQsqaUBKTNV-1" edge="1">
          <mxGeometry width="50" height="50" relative="1" as="geometry">
            <mxPoint x="421" y="328.582995951417" as="sourcePoint" />
            <mxPoint x="441" y="328.582995951417" as="targetPoint" />
          </mxGeometry>
        </mxCell>
        <mxCell id="ioiUGn3sO733AsgO1TPS-47" value="" style="endArrow=none;html=1;rounded=0;" parent="WIyWlLk6GJQsqaUBKTNV-1" edge="1">
          <mxGeometry width="50" height="50" relative="1" as="geometry">
            <mxPoint x="441" y="358.582995951417" as="sourcePoint" />
            <mxPoint x="441" y="328.582995951417" as="targetPoint" />
          </mxGeometry>
        </mxCell>
        <mxCell id="ioiUGn3sO733AsgO1TPS-48" value="" style="endArrow=none;html=1;rounded=0;" parent="WIyWlLk6GJQsqaUBKTNV-1" edge="1">
          <mxGeometry width="50" height="50" relative="1" as="geometry">
            <mxPoint x="421" y="358.582995951417" as="sourcePoint" />
            <mxPoint x="421" y="328.582995951417" as="targetPoint" />
          </mxGeometry>
        </mxCell>
        <mxCell id="ioiUGn3sO733AsgO1TPS-49" value="" style="endArrow=none;html=1;rounded=0;" parent="WIyWlLk6GJQsqaUBKTNV-1" edge="1">
          <mxGeometry width="50" height="50" relative="1" as="geometry">
            <mxPoint x="441" y="358.582995951417" as="sourcePoint" />
            <mxPoint x="493" y="358.582995951417" as="targetPoint" />
          </mxGeometry>
        </mxCell>
        <mxCell id="ioiUGn3sO733AsgO1TPS-101" value="ir、rgb 同步模式，曝光结束对齐" style="whiteSpace=wrap;html=1;" parent="WIyWlLk6GJQsqaUBKTNV-1" vertex="1">
          <mxGeometry x="230" y="10" width="180" height="30" as="geometry" />
        </mxCell>
        <mxCell id="ioiUGn3sO733AsgO1TPS-102" value="ir、rgb 同步模式，错峰 3ms 曝光" style="whiteSpace=wrap;html=1;" parent="WIyWlLk6GJQsqaUBKTNV-1" vertex="1">
          <mxGeometry x="240" y="440" width="180" height="30" as="geometry" />
        </mxCell>
      </root>
    </mxGraphModel>
  </diagram>
</mxfile>
